<svg width="24" height="24" viewBox="0 0 24 24" fill="none" xmlns="http://www.w3.org/2000/svg">
<path d="M3 9.40003C3 7.15979 3 6.03969 3.43597 5.18404C3.81947 4.43139 4.43139 3.81947 5.18404 3.43597C6.03969 3 7.15979 3 9.40003 3H14.6C16.8402 3 17.9603 3 18.816 3.43597C19.5686 3.81947 20.1805 4.43139 20.564 5.18404C21 6.03969 21 7.15979 21 9.40003V14.6C21 16.8402 21 17.9603 20.564 18.816C20.1805 19.5686 19.5686 20.1805 18.816 20.564C17.9603 21 16.8402 21 14.6 21H9.40003C7.15979 21 6.03969 21 5.18404 20.564C4.43139 20.1805 3.81947 19.5686 3.43597 18.816C3 17.9603 3 16.8402 3 14.6V9.40003Z" fill="white"/>
<path d="M17.4612 5.57147H15.3711V8.6001H18.4295V6.42548C18.4295 6.42548 18.2784 5.65407 17.4612 5.57147Z" fill="#1967D2"/>
<path d="M15.3711 18.4145V18.4218V18.4285L18.4295 15.3998H18.402L15.3711 18.4145Z" fill="#1967D2"/>
<path d="M18.4263 15.4003V15.3725L18.3984 15.4003H18.4263Z" fill="#FBBC05"/>
<path d="M18.4295 8.60016H15.3711V15.3727H18.4295V8.60016Z" fill="#FBBC05"/>
<path d="M18.402 15.3998H15.3711V18.4145L18.402 15.3998Z" fill="#EA4335"/>
<path d="M15.3711 15.3996H18.402L18.4295 15.3725H15.3711V15.3996Z" fill="#EA4335"/>
<path d="M15.3594 18.4231H15.368V18.4145L15.3594 18.4231Z" fill="#34A853"/>
<path d="M8.55859 15.3725V18.4218H15.3604L15.3679 15.3725H8.55859Z" fill="#34A853"/>
<path d="M15.3668 15.3998V15.3725L15.3594 18.4218L15.3668 18.4144V15.3998Z" fill="#34A853"/>
<path d="M5.57422 15.3725V17.4926C5.60162 18.1806 6.34566 18.4218 6.34566 18.4218H8.5637V15.3725H5.57422Z" fill="#188038"/>
<path d="M8.5637 8.6001H15.373V5.57147H6.43203C6.43203 5.57147 5.62902 5.65407 5.57422 6.50724V15.3727H8.5637V8.6001Z" fill="#4285F4"/>
<path d="M10.785 14.0019C10.6292 14.0019 10.479 13.9815 10.3343 13.941C10.1934 13.9004 10.0636 13.8395 9.9449 13.7583C9.82617 13.6735 9.72048 13.5684 9.62772 13.443C9.53875 13.3175 9.47009 13.1718 9.42188 13.0057L10.1062 12.7347C10.1544 12.9191 10.2361 13.0593 10.351 13.1552C10.466 13.2474 10.6106 13.2936 10.785 13.2936C10.8629 13.2936 10.9371 13.2824 11.0075 13.2603C11.078 13.2345 11.1392 13.1994 11.1911 13.1552C11.2431 13.1109 11.2838 13.0593 11.3135 13.0002C11.3469 12.9375 11.3636 12.8674 11.3636 12.7899C11.3636 12.6276 11.3024 12.5004 11.18 12.4081C11.0614 12.3159 10.8963 12.2698 10.6848 12.2698H10.3566V11.6113H10.6571C10.7312 11.6113 10.8036 11.6021 10.874 11.5836C10.9445 11.5652 11.0057 11.5375 11.0576 11.5006C11.1132 11.4601 11.1559 11.4102 11.1856 11.3512C11.219 11.2885 11.2356 11.2165 11.2356 11.1354C11.2356 11.0099 11.1911 10.9085 11.1021 10.831C11.0131 10.7499 10.8925 10.7093 10.7405 10.7093C10.5773 10.7093 10.4512 10.7536 10.3622 10.8421C10.2768 10.9269 10.2175 11.0229 10.1841 11.1299L9.51644 10.8587C9.54987 10.7665 9.59995 10.6724 9.66668 10.5765C9.73347 10.4769 9.81691 10.3884 9.91707 10.3109C10.0209 10.2297 10.1415 10.1652 10.2787 10.1172C10.4159 10.0656 10.5736 10.0397 10.7516 10.0397C10.9334 10.0397 11.0984 10.0656 11.2468 10.1172C11.3989 10.1688 11.5286 10.2408 11.6363 10.333C11.7438 10.4215 11.8273 10.5286 11.8866 10.654C11.9459 10.7757 11.9756 10.9085 11.9756 11.0524C11.9756 11.1631 11.9608 11.2626 11.9311 11.3512C11.9052 11.4397 11.8699 11.5191 11.8254 11.5891C11.7809 11.6592 11.729 11.7201 11.6696 11.7718C11.614 11.8197 11.5565 11.8584 11.4971 11.8879V11.9322C11.6752 12.0023 11.8217 12.1149 11.9367 12.2698C12.0554 12.4247 12.1147 12.6203 12.1147 12.8563C12.1147 13.0224 12.0832 13.1755 12.0201 13.3157C11.9571 13.4521 11.8662 13.572 11.7475 13.6753C11.6325 13.7787 11.4934 13.858 11.3303 13.9133C11.167 13.9723 10.9853 14.0019 10.785 14.0019Z" fill="#4285F4"/>
<path d="M13.4441 13.9133V10.9804L12.771 11.2626L12.5039 10.6484L13.6222 10.1282H14.173V13.9133H13.4441Z" fill="#4285F4"/>
</svg>
