<svg width="24" height="24" viewBox="0 0 24 24" fill="none" xmlns="http://www.w3.org/2000/svg">
<path d="M7.09127 18.5046V11.5495L4.93423 9.57609L3 8.48102V17.2772C3 17.9564 3.55028 18.5046 4.22738 18.5046H7.09127Z" fill="#4285F4"/>
<path d="M16.9102 18.5046H19.774C20.4532 18.5046 21.0014 17.9544 21.0014 17.2772V8.48102L18.8106 9.73538L16.9102 11.5495V18.5046Z" fill="#34A853"/>
<path d="M7.09039 11.5495L6.79688 8.83193L7.09039 6.2309L11.9999 9.91304L16.9094 6.2309L17.2378 8.69148L16.9094 11.5495L11.9999 15.2317L7.09039 11.5495Z" fill="#EA4335"/>
<path d="M16.9102 6.23086V11.5495L21.0014 8.48106V6.84455C21.0014 5.32669 19.2688 4.46139 18.0557 5.3717L16.9102 6.23086Z" fill="#FBBC04"/>
<path d="M3 8.48106L4.88164 9.8923L7.09127 11.5495V6.23086L5.94571 5.3717C4.73061 4.46139 3 5.32669 3 6.84455V8.48106Z" fill="#C5221F"/>
</svg>
