<svg width="24" height="24" viewBox="0 0 24 24" fill="none" xmlns="http://www.w3.org/2000/svg">
<path d="M10.3626 16.0908H9.54439V9.95446L13.8138 16.3586C14.1974 16.934 14.9014 17.2062 15.5723 17.0384L15.78 16.9865C15.9621 16.9409 16.0898 16.7773 16.0898 16.5896V7.909C16.0898 7.909 16.908 7.909 16.908 7.09082H14.4535C13.6353 7.09082 13.6353 7.909 13.6353 7.909H14.4535V12.8181L10.485 7.26213C10.4081 7.15462 10.2842 7.09082 10.1521 7.09082H7.90803C7.08984 7.09082 7.08984 7.909 7.08984 7.909H7.90803V16.0908C7.90803 16.0908 7.08984 16.0908 7.08984 16.909H9.54439C10.3626 16.909 10.3626 16.0908 10.3626 16.0908Z" fill="#0F0F0F"/>
<path fill-rule="evenodd" clip-rule="evenodd" d="M3 5.45455C3 4.09894 4.09894 3 5.45455 3H18.5455C19.9011 3 21 4.09894 21 5.45455V18.5455C21 19.9011 19.9011 21 18.5455 21H5.45455C4.09894 21 3 19.9011 3 18.5455V5.45455ZM5.45455 4.63636H18.5455C18.9973 4.63636 19.3636 5.00268 19.3636 5.45455V18.5455C19.3636 18.9973 18.9973 19.3636 18.5455 19.3636H5.45455C5.00268 19.3636 4.63636 18.9973 4.63636 18.5455V5.45455C4.63636 5.00268 5.00268 4.63636 5.45455 4.63636Z" fill="#0F0F0F"/>
</svg>
