<svg width="24" height="24" viewBox="0 0 24 24" fill="none" xmlns="http://www.w3.org/2000/svg">
<path d="M9.74977 10.9185V5.71689C9.74977 5.36764 9.88851 5.03269 10.1355 4.78573C10.3824 4.53877 10.7174 4.40002 11.0666 4.40002H20.2847C20.634 4.40002 20.9689 4.53877 21.2159 4.78573C21.4628 5.03269 21.6016 5.36764 21.6016 5.71689V16.2518L18.9678 13.6181H15.2016" stroke="#1D1D1D" stroke-width="0.8" stroke-linecap="round" stroke-linejoin="round"/>
<path d="M11.7227 5.71667H12.1811C12.2915 5.71667 12.3811 5.80622 12.3811 5.91667V8.35041" stroke="#1D1D1D" stroke-width="0.4" stroke-linecap="round"/>
<path d="M16.332 5.71667H16.7905C16.9009 5.71667 16.9905 5.80622 16.9905 5.91667V8.35041" stroke="#1D1D1D" stroke-width="0.4" stroke-linecap="round"/>
<path d="M14.3594 9.6673H14.8178C14.9283 9.6673 15.0178 9.75684 15.0178 9.8673V10.9842V12.301" stroke="#1D1D1D" stroke-width="0.4" stroke-linecap="round"/>
<path d="M18.9648 9.6673H19.4233C19.5337 9.6673 19.6233 9.75684 19.6233 9.8673V12.301" stroke="#1D1D1D" stroke-width="0.4" stroke-linecap="round"/>
<path d="M13.6992 7.69197V6.37511C13.6992 6.01147 13.994 5.71667 14.3577 5.71667C14.7213 5.71667 15.0161 6.01146 15.0161 6.37511V7.69197C15.0161 8.05562 14.7213 8.35041 14.3577 8.35041C13.994 8.35041 13.6992 8.05562 13.6992 7.69197Z" stroke="#1D1D1D" stroke-width="0.4"/>
<path d="M13.0395 10.9842V10.3257C13.0395 9.96209 12.7447 9.6673 12.3811 9.6673C12.0174 9.6673 11.7227 9.96209 11.7227 10.3257V10.9842" stroke="#1D1D1D" stroke-width="0.4" stroke-linecap="round"/>
<path d="M18.3086 7.69197V6.37511C18.3086 6.01147 18.6034 5.71667 18.967 5.71667C19.3307 5.71667 19.6255 6.01146 19.6255 6.37511V7.69197C19.6255 8.05562 19.3307 8.35041 18.967 8.35041C18.6034 8.35041 18.3086 8.05562 18.3086 7.69197Z" stroke="#1D1D1D" stroke-width="0.4"/>
<path d="M16.332 11.6426V10.3257C16.332 9.96209 16.6268 9.6673 16.9905 9.6673C17.3541 9.6673 17.6489 9.96209 17.6489 10.3257V11.6426C17.6489 12.0062 17.3541 12.301 16.9905 12.301C16.6268 12.301 16.332 12.0062 16.332 11.6426Z" stroke="#1D1D1D" stroke-width="0.4"/>
<path d="M13.8645 16.551C14.1115 16.304 14.2502 15.9691 14.2502 15.6198V13.0651C14.2502 12.7158 14.1115 12.3809 13.8645 12.1339C13.6176 11.887 13.2826 11.7482 12.9334 11.7482H3.7153C3.36605 11.7482 3.0311 11.887 2.78414 12.1339C2.53718 12.3809 2.39844 12.7158 2.39844 13.0651V19.5704L5.03217 16.9367H12.9334C13.2826 16.9367 13.6176 16.7979 13.8645 16.551Z" stroke="#1D1D1D" stroke-width="0.8" stroke-linecap="round" stroke-linejoin="round"/>
<path d="M6.90234 13.1705H7.36078C7.47123 13.1705 7.56078 13.2601 7.56078 13.3705V15.8043" stroke="#1D1D1D" stroke-width="0.4" stroke-linecap="round"/>
<path d="M9.03906 13.1705H9.4975C9.60795 13.1705 9.6975 13.2601 9.6975 13.3705V15.8043" stroke="#1D1D1D" stroke-width="0.4" stroke-linecap="round"/>
<path d="M4.29688 15.1458V13.829C4.29688 13.4653 4.59167 13.1705 4.95531 13.1705C5.31895 13.1705 5.61374 13.4653 5.61374 13.829V15.1458C5.61374 15.5095 5.31895 15.8043 4.95531 15.8043C4.59167 15.8043 4.29688 15.5095 4.29688 15.1458Z" stroke="#1D1D1D" stroke-width="0.4"/>
<path d="M10.9609 15.0401V13.7233C10.9609 13.3596 11.2557 13.0648 11.6194 13.0648C11.983 13.0648 12.2778 13.3596 12.2778 13.7233V15.0401C12.2778 15.4038 11.983 15.6986 11.6194 15.6986C11.2557 15.6986 10.9609 15.4038 10.9609 15.0401Z" stroke="#1D1D1D" stroke-width="0.4"/>
</svg>
