<svg width="24" height="24" viewBox="0 0 24 24" fill="none" xmlns="http://www.w3.org/2000/svg">
<path d="M20 12.2689C20 11.2988 19.2127 10.5114 18.2425 10.5114C17.7645 10.5114 17.3427 10.6942 17.0334 11.0035C15.8383 10.1459 14.1793 9.58348 12.3515 9.51318L13.1529 5.75923L15.754 6.30756C15.7821 6.96837 16.3304 7.50264 17.0053 7.50264C17.6942 7.50264 18.2566 6.94025 18.2566 6.25132C18.2566 5.56239 17.6942 5 17.0053 5C16.5132 5 16.0914 5.2812 15.8946 5.70299L12.9842 5.08436C12.8998 5.0703 12.8155 5.08436 12.7452 5.12654C12.6749 5.16872 12.6327 5.23902 12.6046 5.32337L11.7188 9.51318C9.84886 9.56942 8.17575 10.1178 6.96661 11.0035C6.65729 10.7083 6.22144 10.5114 5.75747 10.5114C4.78735 10.5114 4 11.2988 4 12.2689C4 12.9859 4.42179 13.5905 5.04042 13.8717C5.0123 14.0404 4.99824 14.2232 4.99824 14.406C4.99824 17.1055 8.13357 19.2847 12.0141 19.2847C15.8946 19.2847 19.0299 17.1055 19.0299 14.406C19.0299 14.2232 19.0158 14.0545 18.9877 13.8858C19.5641 13.6046 20 12.9859 20 12.2689ZM7.97891 13.5202C7.97891 12.8313 8.5413 12.2689 9.23023 12.2689C9.91916 12.2689 10.4815 12.8313 10.4815 13.5202C10.4815 14.2091 9.91916 14.7715 9.23023 14.7715C8.5413 14.7715 7.97891 14.2091 7.97891 13.5202ZM14.9666 16.8243C14.109 17.6819 12.478 17.7381 12 17.7381C11.522 17.7381 9.87698 17.6678 9.03339 16.8243C8.90685 16.6977 8.90685 16.4868 9.03339 16.3603C9.15993 16.2337 9.37083 16.2337 9.49736 16.3603C10.0316 16.8946 11.1845 17.0914 12.0141 17.0914C12.8436 17.0914 13.9824 16.8946 14.5308 16.3603C14.6573 16.2337 14.8682 16.2337 14.9947 16.3603C15.0931 16.5009 15.0931 16.6977 14.9666 16.8243ZM14.7417 14.7715C14.0527 14.7715 13.4903 14.2091 13.4903 13.5202C13.4903 12.8313 14.0527 12.2689 14.7417 12.2689C15.4306 12.2689 15.993 12.8313 15.993 13.5202C15.993 14.2091 15.4306 14.7715 14.7417 14.7715Z" fill="#FF4500"/>
</svg>
