<svg width="24" height="24" viewBox="0 0 24 24" fill="none" xmlns="http://www.w3.org/2000/svg">
<path d="M18.4635 11.3844C19.3131 11.3844 20.0018 10.6956 20.0018 9.84603C20.0018 8.99643 19.313 8.30769 18.4634 8.30769C17.6137 8.30769 16.9249 8.99649 16.9249 9.84615V11.3844H18.4635ZM14.1556 11.3844C15.0053 11.3844 15.6941 10.6956 15.6941 9.84591V5.53846C15.6941 4.68879 15.0053 4 14.1556 4C13.306 4 12.6172 4.68879 12.6172 5.53846V9.84591C12.6172 10.6956 13.306 11.3844 14.1556 11.3844Z" fill="#2EB67D"/>
<path d="M5.53833 12.6156C4.68873 12.6156 4 13.3043 4 14.1539C4 15.0035 4.6888 15.6923 5.53839 15.6923C6.38806 15.6923 7.07692 15.0035 7.07692 14.1538V12.6156H5.53833ZM9.84615 12.6156C8.99649 12.6156 8.30769 13.3044 8.30769 14.1541V18.4615C8.30769 19.3112 8.99649 20 9.84615 20C10.6958 20 11.3846 19.3112 11.3846 18.4615V14.1541C11.3846 13.3044 10.6958 12.6156 9.84615 12.6156Z" fill="#E01E5A"/>
<path d="M12.6172 18.4616C12.6172 19.3112 13.3059 20 14.1555 20C15.0051 20 15.6939 19.3112 15.6939 18.4616C15.6939 17.6119 15.0051 16.923 14.1554 16.923H12.6172V18.4616ZM12.6172 14.1538C12.6172 15.0035 13.306 15.6923 14.1556 15.6923H18.4631C19.3128 15.6923 20.0016 15.0035 20.0016 14.1538C20.0016 13.3042 19.3128 12.6154 18.4631 12.6154H14.1556C13.306 12.6154 12.6172 13.3042 12.6172 14.1538Z" fill="#ECB22E"/>
<path d="M11.3844 5.53833C11.3844 4.68873 10.6956 4 9.84603 4C8.99643 4 8.30769 4.6888 8.30769 5.53839C8.30769 6.38807 8.99649 7.07692 9.84615 7.07692H11.3844V5.53833ZM11.3844 9.84615C11.3844 8.99649 10.6956 8.30769 9.84591 8.30769H5.53846C4.68879 8.30769 4 8.99649 4 9.84615C4 10.6958 4.68879 11.3846 5.53846 11.3846H9.84591C10.6956 11.3846 11.3844 10.6958 11.3844 9.84615Z" fill="#36C5F0"/>
</svg>
