<svg width="40" height="40" viewBox="0 0 40 40" fill="none" xmlns="http://www.w3.org/2000/svg">
<path d="M35 20C35 28.2842 28.2842 35 20 35C16.8402 35 13.9086 34.023 11.4908 32.3546L6.36364 33.6364L7.7072 28.598C6.00115 26.1634 5 23.1986 5 20C5 11.7157 11.7157 5 20 5C28.2842 5 35 11.7157 35 20Z" fill="url(#paint0_linear_4415_1672)"/>
<path fill-rule="evenodd" clip-rule="evenodd" d="M20 37.5C29.665 37.5 37.5 29.665 37.5 20C37.5 10.335 29.665 2.5 20 2.5C10.335 2.5 2.5 10.335 2.5 20C2.5 23.1386 3.32625 26.0843 4.77309 28.6313L2.5 37.5L11.6436 35.3798C14.1268 36.7318 16.9736 37.5 20 37.5ZM20 34.8078C28.1781 34.8078 34.8078 28.1781 34.8078 20C34.8078 11.8219 28.1781 5.19231 20 5.19231C11.8219 5.19231 5.19231 11.8219 5.19231 20C5.19231 23.1576 6.18063 26.0844 7.8648 28.4877L6.53846 33.4615L11.5999 32.1961C13.9868 33.8433 16.8808 34.8078 20 34.8078Z" fill="white"/>
<path d="M15.625 11.8747C15.209 11.039 14.5706 11.113 13.9259 11.113C12.7735 11.113 10.9766 12.4934 10.9766 15.0624C10.9766 17.1678 11.9043 19.4724 15.0305 22.92C18.0475 26.2473 22.0118 27.9684 25.3028 27.9098C28.5938 27.8513 29.2709 25.0191 29.2709 24.0628C29.2709 23.6389 29.0078 23.4274 28.8266 23.3699C27.7051 22.8316 25.6366 21.8288 25.166 21.6404C24.6954 21.452 24.4496 21.7069 24.2969 21.8455C23.8701 22.2521 23.0241 23.4509 22.7344 23.7205C22.4447 23.9901 22.0129 23.8536 21.8331 23.7518C21.1717 23.4864 19.3786 22.6888 17.9494 21.3031C16.1816 19.5896 16.0779 19 15.7449 18.4753C15.4785 18.0554 15.674 17.7979 15.7715 17.6853C16.1524 17.2459 16.6782 16.5674 16.9141 16.2303C17.1499 15.893 16.9627 15.3811 16.8504 15.0624C16.3672 13.6911 15.9579 12.5433 15.625 11.8747Z" fill="white"/>
<defs>
<linearGradient id="paint0_linear_4415_1672" x1="33.125" y1="8.75" x2="5" y2="35" gradientUnits="userSpaceOnUse">
<stop stop-color="#5BD066"/>
<stop offset="1" stop-color="#27B43E"/>
</linearGradient>
</defs>
</svg>
