<svg width="376" height="110" viewBox="0 0 376 110" fill="none" xmlns="http://www.w3.org/2000/svg">
<path d="M227.015 30.6201L227.886 31.3643L228.092 31.54L228.057 31.8086C227.8 33.7939 227.519 38.1431 227.213 44.8789C228.841 44.8994 229.827 44.9111 230.175 44.9111C230.386 44.9111 231.624 44.8867 233.903 44.8369H233.904C235.159 44.8122 236.084 44.7629 236.688 44.6914L236.932 44.6621L237.104 44.8389L237.359 45.0996L237.546 45.293L237.488 45.5557L236.726 49.0195L236.638 49.418L236.23 49.4111C234.707 49.3863 233.306 49.374 232.026 49.374C230.839 49.374 229.224 49.3849 227.182 49.4062L226.972 64.0742V64.0771C226.936 65.9243 226.924 67.3958 226.936 68.4932C226.948 69.6048 226.985 70.2982 227.038 70.6133C227.15 71.2761 227.358 71.845 227.657 72.3281C227.954 72.7828 228.333 73.1492 228.798 73.4316C229.261 73.6982 230.096 73.9333 231.366 74.1045C232.327 74.1038 233.088 74.068 233.656 73.999C234.24 73.9067 234.992 73.6961 235.92 73.3545L236.419 73.1709L236.571 73.6807L237.007 75.1328L237.104 75.4541L236.842 75.665C235.714 76.5761 234.622 77.524 233.566 78.5088L233.493 78.5762L233.401 78.6113C232.458 78.9679 231.564 79.2006 230.723 79.3066L230.724 79.3076C229.894 79.4366 228.947 79.5 227.888 79.5C226.574 79.5 225.476 79.3481 224.622 79.0195L224.617 79.0176C223.818 78.7001 223.083 78.2632 222.414 77.709L222.405 77.7021C221.722 77.1091 221.163 76.3726 220.725 75.501C220.267 74.5899 219.996 73.2164 219.874 71.4375L219.873 71.417V71.3965C219.897 69.7041 219.946 67.8507 220.019 65.8369V65.8242H220.02C220.043 65.4389 220.055 65.0149 220.055 64.5518V49.5977H219.067C217.873 49.5977 216.531 49.659 215.041 49.7822L214.5 49.8271V47.3779L214.818 47.2539C217.08 46.3725 218.895 45.5801 220.271 44.8809C220.268 39.1428 220.197 35.495 220.057 33.9111L220.023 33.5254L220.387 33.3965C222.881 32.5108 224.888 31.5699 226.418 30.5801L226.732 30.3779L227.015 30.6201Z" fill="#1D1D1D" stroke="#1D1D1D"/>
<path d="M86.6553 34.8945C86.7478 35.0928 86.9072 35.2522 87.1055 35.3447L89.5811 36.5L87.1055 37.6553C86.9072 37.7478 86.7478 37.9072 86.6553 38.1055L85.5 40.5811L84.3447 38.1055L84.2627 37.9648C84.1696 37.8321 84.0432 37.7247 83.8945 37.6553L81.418 36.5L83.8945 35.3447C84.0928 35.2522 84.2522 35.0928 84.3447 34.8945L85.5 32.418L86.6553 34.8945Z" fill="#1D1D1D" stroke="#1D1D1D" stroke-width="1.2"/>
<path d="M70.6447 30.5L70.4532 31.1426C70.081 32.3931 69.8046 33.8821 69.6632 34.8154L69.6603 34.835L69.6554 34.8555C69.6544 34.8625 69.6494 34.8969 69.6398 34.9766C69.6291 35.0642 69.616 35.1863 69.5997 35.3438C69.5672 35.6586 69.5235 36.1083 69.4698 36.6924C69.3627 37.86 69.2143 39.562 69.0236 41.7988L68.9845 42.2568H65.7657L65.7716 41.751C65.794 39.5955 65.6533 37.629 65.3585 35.8486C64.1623 35.4043 62.851 35.097 61.421 34.9336H61.4191C58.7675 34.6211 56.1161 34.4648 53.465 34.4648C52.9062 34.4648 51.6426 34.5086 49.6603 34.5986C47.9938 34.6744 46.7294 34.7434 45.8644 34.8027C45.7775 37.1286 45.7109 39.3151 45.6661 41.3623L45.5284 52.2744C48.126 52.3939 50.5211 52.4551 52.714 52.4551C55.5388 52.4551 57.9376 52.332 59.9142 52.0879H59.9171C60.2762 52.0456 60.5476 51.9847 60.7423 51.9131C60.9413 51.8398 61.0227 51.7689 61.0509 51.7334C61.0521 51.7316 61.0814 51.687 61.1251 51.5586C61.1667 51.4362 61.2117 51.2686 61.257 51.0498C61.3475 50.612 61.435 50.0057 61.5177 49.2256L61.7316 46.8721L61.7726 46.418H64.8751V47.5713L64.6964 54.5742L64.8751 62.4229L64.8868 62.9336H61.3947L61.3722 62.457L61.2648 60.1641L61.2638 60.1543V60.1533C61.2402 59.3328 61.188 58.6829 61.1095 58.1963C61.0276 57.6886 60.9269 57.4274 60.8546 57.3252L60.8488 57.3174L60.8439 57.3086C60.6885 57.069 60.3348 56.831 59.6281 56.6846L59.3683 56.6367C57.9954 56.4085 55.4918 56.2891 51.8195 56.2891C50.315 56.2891 48.2095 56.3396 45.5001 56.4404C45.3967 58.6629 45.3439 61.8397 45.3439 65.9756C45.3439 69.8562 45.3969 72.8577 45.5001 74.9844C48.8079 75.2101 52.5 75.3252 56.5773 75.3252C59.6048 75.3252 61.7323 75.2352 62.9825 75.0605C64.1562 74.8966 65.2426 74.6256 66.2443 74.2539C66.4913 73.6104 66.7452 72.7601 67.0011 71.6943L67.004 71.6846C67.5248 69.698 67.7781 68.395 67.9425 67.3984L68.0118 66.9795H71.5734L71.4952 67.5479C70.8757 72.0867 70.4747 76.0451 70.4747 79V79.5H41.257C40.9412 79.5 37.9429 79.4702 32.0284 79.5L31.5255 79.5029V76.584L32.0216 76.5801C34.4823 76.5579 35.7833 76.2087 36.4913 75.9053L36.5001 75.9014C36.7328 75.8073 36.8713 75.6734 36.9542 75.5039L36.962 75.4902C37.0363 75.3502 37.1287 75.0208 37.212 74.4316C37.2925 73.8624 37.3571 73.1057 37.4044 72.1572C37.5472 69.1946 37.6183 66.6394 37.6183 64.4912V47.2549C37.6183 44.202 37.5832 41.2166 37.5118 38.2988L37.4806 37.5469C37.4442 36.8381 37.3926 36.2586 37.3282 35.8057C37.2853 35.5036 37.2384 35.2676 37.1886 35.0918C37.1362 34.9067 37.0909 34.8259 37.0743 34.8037L37.0548 34.7764C36.8771 34.5023 36.5558 34.2653 36.0118 34.1074L36.0011 34.1045L35.9904 34.1006C35.7616 34.023 35.2448 33.9441 34.38 33.8818C33.5349 33.821 32.4068 33.7783 30.9923 33.7559L30.5001 33.748V30.5H70.6447Z" fill="#1D1D1D" stroke="#1D1D1D"/>
<path d="M94.5001 79.4998H77.5001V76.4949L77.9943 76.489L80.9923 76.4539C81.3865 76.4321 81.6246 76.3608 81.756 76.2839C81.9413 76.1626 82.0661 76.0273 82.1476 75.8806C82.3292 75.509 82.4753 74.7681 82.5382 73.5769C82.5411 73.1334 82.6041 69.7631 82.7277 63.4812V57.2732C82.7277 55.5255 82.7017 54.1392 82.6495 53.1111C82.5966 52.0678 82.5182 51.4506 82.4366 51.1902C82.3537 50.966 82.213 50.811 81.9952 50.7048L81.9767 50.6951L81.9591 50.6853C81.9664 50.6899 81.9029 50.6594 81.6915 50.6248C81.4987 50.5931 81.2333 50.5648 80.8898 50.5417C80.2039 50.4958 79.2422 50.4724 78.0001 50.4724H77.5001V47.5212L77.9376 47.4666C81.9936 46.9545 85.3751 45.9795 88.0968 44.5564L88.3878 44.4041L88.6437 44.6111L89.3409 45.1755L89.5343 45.3318L89.5255 45.5808C89.3566 50.5875 89.2726 54.4138 89.2726 57.0623V63.4724L89.3986 70.5339L89.462 73.3708L89.463 73.3826H89.462C89.4826 74.5283 89.5962 75.3054 89.7687 75.7625C89.8441 75.9088 89.9392 76.039 90.0548 76.155C90.1461 76.2273 90.3118 76.3128 90.588 76.3923C90.6144 76.3941 90.6781 76.3987 90.797 76.4041C90.9556 76.4112 91.1806 76.4187 91.4728 76.4275C92.0567 76.4451 92.9025 76.4655 94.0109 76.489L94.5001 76.4998V79.4998Z" fill="#1D1D1D" stroke="#1D1D1D"/>
<path d="M115.333 44.4998C116.866 44.4998 118.326 44.768 119.708 45.3064H119.709C121.057 45.8236 122.324 46.5896 123.515 47.5935C127.503 47.5697 130.572 47.5239 132.724 47.4548L133.077 47.4441L133.206 47.7732L133.466 48.4421L133.556 48.6726L133.427 48.8835C132.579 50.2693 132.037 51.203 131.787 51.698L131.648 51.9724H125.981C126.348 53.157 126.537 54.2924 126.537 55.3777C126.537 57.2438 126.081 59.0666 125.182 60.8425L125.182 60.8435C124.298 62.6081 122.998 64.1215 121.292 65.3835L121.288 65.3865C119.589 66.6194 117.77 67.4571 115.835 67.8953L115.836 67.8962C114.603 68.1818 112.984 68.2982 110.995 68.2625C109.674 69.415 108.89 70.2399 108.575 70.7556C108.381 71.1001 108.285 71.4709 108.285 71.8767C108.285 72.3375 108.405 72.7383 108.643 73.0935C108.884 73.4013 109.261 73.6414 109.826 73.7839L109.835 73.7859L109.843 73.7888C110.742 74.0482 112.411 74.1899 114.902 74.1902L121.928 74.0505H121.937C124.415 74.0505 126.368 74.4027 127.735 75.1638C129.123 75.9014 130.142 77.0473 130.791 78.574L130.907 78.8533C131.468 80.2615 131.743 81.8319 131.743 83.5564C131.743 86.0779 130.972 88.616 129.461 91.1638L129.46 91.1628C127.952 93.764 125.707 95.796 122.747 97.2644L122.748 97.2654C119.786 98.7581 116.476 99.4997 112.828 99.4998C109.78 99.4998 107.153 98.9868 104.966 97.9382C102.79 96.8955 101.147 95.4863 100.068 93.7L100.066 93.696C99.0258 91.9352 98.4999 90.0771 98.4999 88.1296C98.4999 87.0517 98.6474 86.0282 98.9452 85.0623L98.9491 85.0486C99.2707 84.1049 99.7935 83.1032 100.505 82.0457L100.579 81.9363L100.697 81.8767C102.849 80.8087 104.476 79.8589 105.601 79.0339C105.053 78.8197 104.573 78.609 104.164 78.3982C103.563 78.0885 103.083 77.7666 102.765 77.4226L102.758 77.4148C102.205 76.7917 101.884 76.1154 101.884 75.3943C101.884 75.0872 101.983 74.5943 102.143 73.9685C102.309 73.3229 102.556 72.4807 102.883 71.4451L102.924 71.3152L103.024 71.2244C103.981 70.3591 105.415 69.185 107.318 67.7009C105.763 67.172 104.502 66.569 103.554 65.8787L103.544 65.8708C102.428 65.0165 101.565 63.8787 100.949 62.4734L100.948 62.4705C100.333 61.0423 100.029 59.4851 100.029 57.8054C100.029 55.3312 100.614 53.1054 101.793 51.1443C102.914 49.2574 104.736 47.7381 107.21 46.5662L107.714 46.3357C110.427 45.1197 112.969 44.4998 115.333 44.4998ZM115.655 79.9753C112.436 79.9754 110.446 80.0224 109.646 80.1111C109.386 80.1581 109.058 80.3026 108.658 80.5847L108.479 80.7166C107.623 81.3726 106.97 81.8805 106.518 82.241C106.292 82.4213 106.119 82.5623 105.998 82.6658C105.858 82.7847 105.827 82.8207 105.838 82.8064L105.824 82.824L105.809 82.8406C105.669 82.9923 105.458 83.3832 105.197 84.1121L105.196 84.1111C104.759 85.3724 104.543 86.6414 104.543 87.9187C104.543 90.2467 105.368 92.1918 107.025 93.7849C108.688 95.3857 110.992 96.2126 113.999 96.2126C116.222 96.2126 118.234 95.7264 120.043 94.7595L120.049 94.7556C121.877 93.8121 123.232 92.5197 124.135 90.8787L124.139 90.8718C125.078 89.2248 125.537 87.5854 125.537 85.948C125.472 84.4826 125.26 83.4313 124.935 82.7507L124.931 82.741C124.607 82.0188 124.212 81.4742 123.76 81.0867L123.752 81.0798C123.33 80.7027 122.72 80.3728 121.895 80.1072C121.64 80.0784 121.025 80.0505 120.016 80.0281C118.962 80.0047 117.509 79.9871 115.655 79.9753ZM113.12 48.0681C111.146 48.0682 109.596 48.7428 108.42 50.0789L108.418 50.0828C107.247 51.3918 106.625 53.2959 106.625 55.8699C106.625 57.4773 106.898 59.0391 107.442 60.5564H107.441C108 62.0517 108.792 63.1434 109.798 63.8699L109.994 64.0037C110.985 64.6502 112.1 64.9744 113.349 64.9744C115.086 64.9743 116.616 64.3778 117.959 63.1677C119.244 61.9868 119.941 60.0525 119.941 57.2419C119.941 54.3663 119.245 52.1453 117.908 50.5242L117.906 50.5222C116.556 48.8635 114.967 48.0681 113.12 48.0681Z" fill="#1D1D1D" stroke="#1D1D1D"/>
<path d="M152.879 44.4998C155.555 44.4998 157.983 45.1005 160.152 46.3103L160.556 46.5427C162.546 47.7309 164.029 49.3145 164.989 51.2937C166 53.3811 166.5 55.7312 166.5 58.3328C166.5 58.9949 166.452 59.7896 166.359 60.7136L166.321 61.0837L165.955 61.1541C164.271 61.4767 162.754 61.685 161.406 61.7781L161.407 61.7791C158.89 61.9627 156.372 62.0544 153.854 62.0544H143.195C143.289 65.0331 143.842 67.4274 144.825 69.2634L145.03 69.6189C146.075 71.3655 147.454 72.658 149.167 73.5125C151.05 74.4396 152.994 74.9011 155.002 74.9011C156.365 74.9011 157.719 74.6918 159.065 74.2722C160.432 73.8301 162.137 73.0268 164.185 71.8484L164.525 71.6531L164.795 71.9363L165.353 72.5193L165.585 72.7634L165.447 73.0701L164.333 75.5378L164.27 75.6785L164.139 75.7585C162.539 76.7403 161.341 77.407 160.563 77.7429C159.44 78.2371 158.158 78.6453 156.722 78.9705L156.723 78.9714C155.289 79.3245 153.775 79.4997 152.184 79.4998C149.051 79.4998 146.199 78.8559 143.64 77.5603C141.066 76.2575 139.057 74.3129 137.617 71.738L137.615 71.7332C136.199 69.1346 135.5 66.1132 135.5 62.6853C135.5 60.0123 135.866 57.5913 136.606 55.4285L136.607 55.4255C137.359 53.2724 138.223 51.6333 139.218 50.5554C139.93 49.7819 141.011 48.9234 142.437 47.9792L142.977 47.6218C144.057 46.9272 145.134 46.3483 146.208 45.8865L146.745 45.6658C148.641 44.8871 150.687 44.4998 152.879 44.4998ZM151.452 47.7957C148.964 47.7957 146.995 48.6668 145.496 50.3992C144.068 52.0502 143.271 54.6817 143.19 58.3875C143.881 58.441 144.946 58.4978 146.391 58.5525H146.39C149.847 58.6667 152.216 58.7234 153.506 58.7234C156.192 58.7234 158.053 58.6791 159.113 58.5955C159.124 58.2587 159.131 57.9886 159.131 57.7839C159.131 54.226 158.397 51.7203 157.029 50.1619C155.649 48.5911 153.808 47.7957 151.452 47.7957Z" fill="#1D1D1D" stroke="#1D1D1D"/>
<path d="M212.5 79.5378L211.964 79.4988C209.7 79.3345 207.825 79.2527 206.335 79.2527C205.053 79.2527 202.91 79.3341 199.899 79.4988L199.341 79.5291L199.372 78.9714C199.697 73.1532 199.859 69.4971 199.859 67.9841V62.0525C199.859 58.3502 199.717 55.9885 199.456 54.9011L199.383 54.6316C198.989 53.3013 198.194 52.2206 196.98 51.3777C195.686 50.4799 194.11 50.0193 192.226 50.0193C190.574 50.0193 189.075 50.4205 187.719 51.2205L187.714 51.2234C186.334 52.015 185.378 52.9209 184.808 53.9275L184.809 53.9285C184.273 54.8917 183.969 56.6155 183.969 59.1931V63.4646H183.968C184.105 69.4958 184.175 72.8015 184.177 73.366L184.198 73.7849C184.258 74.721 184.384 75.3696 184.554 75.7664C184.613 75.8999 184.701 76.0235 184.826 76.1384C184.931 76.2138 185.132 76.305 185.473 76.3884C185.497 76.3901 185.571 76.396 185.718 76.4021C185.891 76.4093 186.136 76.4167 186.453 76.4255C187.088 76.4431 188.008 76.4635 189.212 76.4871L189.702 76.4968V79.53L189.173 79.4988C186.354 79.3345 183.804 79.2527 181.523 79.2527C179.587 79.2527 176.42 79.335 172.019 79.4998L171.5 79.5193V76.4929L171.995 76.4871L175.287 76.4519C175.733 76.4295 176.01 76.354 176.167 76.2683C176.379 76.1414 176.517 76.0012 176.605 75.8542C176.799 75.4855 176.958 74.7528 177.026 73.5691C177.03 73.116 177.099 69.7423 177.234 63.4646V59.2634C177.234 57.3865 177.199 55.3676 177.13 53.2068V53.2058C177.096 52.5229 177.051 51.99 176.996 51.6013C176.969 51.4061 176.94 51.2552 176.911 51.1443C176.882 51.0307 176.86 50.9881 176.859 50.9851L176.85 50.9705L176.842 50.9558C176.782 50.8448 176.654 50.7221 176.366 50.6306L176.353 50.6267L176.34 50.6218C176.34 50.6218 176.337 50.6204 176.332 50.6189C176.327 50.6174 176.32 50.6153 176.312 50.613C176.293 50.6083 176.268 50.6034 176.235 50.5974C176.17 50.5854 176.083 50.5729 175.974 50.5613C175.755 50.538 175.462 50.5182 175.091 50.5037C174.35 50.4747 173.322 50.4665 172.005 50.4783L171.5 50.4822V47.531L171.931 47.4705C176.599 46.8131 179.951 45.962 182.031 44.9392C182.269 44.8186 182.48 44.7223 182.658 44.655C182.824 44.5927 183.014 44.5349 183.191 44.5349C183.454 44.5349 183.699 44.6258 183.888 44.8152L183.966 44.9021L184.031 44.9968C184.17 45.2228 184.212 45.4897 184.212 45.741C184.212 45.9282 184.199 46.1353 184.174 46.3601C184.116 47.0734 184.058 48.4661 183.999 50.5476L189.605 45.6814L189.673 45.6218L189.758 45.5906C191.703 44.8677 193.558 44.4998 195.319 44.4998C197.266 44.4998 199.11 44.9033 200.845 45.7107L201.168 45.864C202.757 46.6418 203.987 47.6159 204.828 48.8005C205.685 49.9771 206.259 51.4242 206.564 53.1238L206.621 53.4675V53.4685C206.791 54.5748 206.87 57.5751 206.87 62.406V68.655C206.87 71.7185 206.952 73.7667 207.109 74.8318C207.217 75.4912 207.368 75.8679 207.508 76.0505C207.658 76.1948 207.911 76.3207 208.326 76.3816L212.015 76.4871L212.5 76.5017V79.5378Z" fill="#1D1D1D" stroke="#1D1D1D"/>
<mask id="mask0_5094_4266" style="mask-type:luminance" maskUnits="userSpaceOnUse" x="256" y="15" width="80" height="80">
<path fill-rule="evenodd" clip-rule="evenodd" d="M336 39.9152C336 38.9655 336 38.0157 335.995 37.0659C335.99 36.2658 335.981 35.4659 335.959 34.6662C335.912 32.9232 335.809 31.1653 335.499 29.4417C335.185 27.6933 334.671 26.066 333.862 24.4773C333.067 22.9159 332.028 21.4871 330.788 20.2483C329.549 19.0096 328.12 17.9713 326.558 17.1765C324.968 16.3673 323.339 15.8541 321.588 15.5398C319.864 15.2303 318.106 15.1277 316.363 15.0806C315.563 15.0589 314.762 15.0498 313.962 15.0449C313.012 15.039 312.061 15.0395 311.111 15.0395L300.077 15H291.825L280.987 15.0395C280.034 15.0395 279.082 15.039 278.13 15.0449C277.328 15.0498 276.526 15.0589 275.724 15.0806C273.977 15.1277 272.215 15.2304 270.487 15.5403C268.734 15.8545 267.103 16.3675 265.511 17.1761C263.945 17.9711 262.513 19.0094 261.271 20.2483C260.029 21.487 258.988 22.9155 258.192 24.4767C257.38 26.0661 256.866 27.6943 256.551 29.4437C256.24 31.1666 256.138 32.924 256.09 34.6662C256.069 35.466 256.06 36.2659 256.055 37.0659C256.049 38.0158 256 39.1957 256 40.1455L256 50.8338L256 59.1746L256.049 70.09C256.049 71.0411 256.049 71.9921 256.055 72.9432C256.06 73.7443 256.069 74.5453 256.09 75.3462C256.138 77.0914 256.241 78.8519 256.551 80.5778C256.866 82.3286 257.381 83.9582 258.191 85.5489C258.988 87.1126 260.029 88.5432 261.271 89.7837C262.513 91.0242 263.945 92.0638 265.51 92.8598C267.103 93.6701 268.735 94.184 270.489 94.4986C272.216 94.8086 273.978 94.9115 275.724 94.9585C276.526 94.9802 277.328 94.9894 278.13 94.9943C279.082 95.0001 280.034 94.9997 280.987 94.9997L291.923 95H300.196L311.111 94.9996C312.061 94.9996 313.012 95.0001 313.962 94.9943C314.762 94.9894 315.563 94.9802 316.363 94.9585C318.107 94.9114 319.866 94.8085 321.59 94.4983C323.34 94.1836 324.968 93.6699 326.557 92.8601C328.119 92.0642 329.549 91.0244 330.788 89.7837C332.028 88.5434 333.067 87.1129 333.862 85.5496C334.671 83.9581 335.185 82.3277 335.499 80.5758C335.809 78.8505 335.912 77.0907 335.959 75.3462C335.981 74.5452 335.99 73.7443 335.995 72.9432C336 71.9921 336 71.0411 336 70.09C336 70.09 335.999 59.3673 335.999 59.1746V50.8251C335.999 50.6828 336 39.9152 336 39.9152" fill="white"/>
</mask>
<g mask="url(#mask0_5094_4266)">
<rect width="80" height="80" transform="translate(256 15)" fill="white"/>
<rect x="256" y="15" width="79.9999" height="79.9999" fill="#1D1D1D"/>
<path d="M324.889 76.7776H306.222V74.1213L306.659 74.1145C309.016 74.0747 310.417 73.8281 310.882 73.6858C311.344 73.5245 311.598 73.3326 311.724 73.1497C311.796 73.0238 311.882 72.7577 311.954 72.2942C312.026 71.8323 312.078 71.2222 312.108 70.4602V70.4573C312.127 70.0477 312.168 67.2196 312.229 61.9504H312.228V48.0491C312.228 45.3312 312.198 42.673 312.138 40.0754L312.112 39.4065C312.081 38.7749 312.038 38.258 311.984 37.8538C311.948 37.5845 311.907 37.3736 311.865 37.2161C311.82 37.0502 311.781 36.9768 311.767 36.9563L311.758 36.9436L311.75 36.9319C311.601 36.6883 311.333 36.481 310.882 36.343L310.872 36.3401L310.863 36.3362C310.675 36.2692 310.245 36.1993 309.515 36.1438C308.803 36.0897 307.852 36.0524 306.659 36.0325L306.222 36.0247V33.2219H324.889V36.0247L324.452 36.0325C323.258 36.0524 322.304 36.0897 321.587 36.1438C320.854 36.1992 320.412 36.2692 320.212 36.3381L320.203 36.342C319.761 36.4826 319.515 36.6636 319.388 36.8459C319.316 36.9703 319.229 37.2375 319.157 37.7053C319.085 38.1672 319.032 38.7765 319.002 39.5383V39.5432C318.983 39.9322 318.943 42.761 318.882 48.054V61.9504C318.882 64.6683 318.913 67.3163 318.973 69.8938L318.998 70.5647C319.028 71.1977 319.069 71.7178 319.12 72.1272C319.154 72.4001 319.192 72.6165 319.232 72.7805C319.272 72.9453 319.308 73.0301 319.328 73.0637C319.503 73.3203 319.782 73.5336 320.203 73.6868C320.411 73.7494 320.856 73.8126 321.584 73.8625C322.303 73.9118 323.258 73.9471 324.452 73.967L324.889 73.9749V76.7776Z" fill="white" stroke="white" stroke-width="0.888884"/>
<path d="M286.911 33.2219C287.781 33.2219 288.502 33.4913 288.97 34.1077H288.969C289.413 34.6477 289.721 35.4784 289.932 36.5354L290.23 37.9231C290.641 39.8144 291.393 43.216 292.488 48.1301L293.023 50.5032C294.242 55.864 295.265 59.996 296.09 62.9026C297.038 66.2387 297.778 68.4889 298.313 69.679C298.83 70.8318 299.441 71.4854 299.964 72.0432C300.119 72.2078 300.462 72.4708 300.903 72.762C301.332 73.0463 301.819 73.335 302.233 73.5491C302.473 73.6734 302.934 73.8326 303.456 73.9592C303.977 74.0856 304.505 74.1657 304.876 74.1555L305.333 74.1428V76.7776H304.889C303.887 76.7776 302.796 76.772 301.814 76.7668C300.831 76.7617 299.957 76.7571 299.387 76.7571H296.771C295.806 76.757 294.955 76.4734 294.24 75.8967C293.532 75.3253 292.984 74.4881 292.577 73.4231C291.786 71.3532 290.406 65.8501 288.439 56.9651V56.9641L284.66 40.5725V40.5715C284.266 38.8895 283.794 37.8246 283.291 37.2834C282.826 36.7835 282 36.4788 280.69 36.4788C280.465 36.4788 280.138 36.4826 279.719 36.4866C279.301 36.4905 278.796 36.4944 278.222 36.4944H277.778V34.4944L278.125 34.4172C282.154 33.5233 285.793 33.222 286.911 33.2219Z" fill="white" stroke="white" stroke-width="0.888884"/>
<path d="M282.476 47.7129C280.13 53.1575 276.591 61.0052 274.688 65.2549C273.411 68.1072 273.766 67.2809 273.094 68.6455C272.856 69.1273 272.251 69.9704 271.618 70.7832C270.992 71.5882 270.38 72.3115 270.159 72.543C270.025 72.683 269.721 72.912 269.326 73.168C268.943 73.4167 268.508 73.6683 268.14 73.8555H268.139C267.935 73.9586 267.533 74.0848 267.064 74.1826C266.6 74.2793 266.126 74.3372 265.79 74.3281L265.333 74.3154V76.7773H271.708C273.413 76.7773 275.403 75.8064 276.179 73.8174C276.876 72.0286 281.669 59.1825 283.979 51.8857L284.012 51.7822L283.993 51.6758L283.322 47.8125L283.067 46.3418L282.476 47.7129Z" fill="white" stroke="white" stroke-width="0.888884"/>
</g>
</svg>
