<svg width="30" height="33" viewBox="0 0 30 33" fill="none" xmlns="http://www.w3.org/2000/svg">
<g filter="url(#filter0_dii_7646_73664)">
<path d="M21 3H9C5.68629 3 3 5.68629 3 9V21C3 24.3137 5.68629 27 9 27H21C24.3137 27 27 24.3137 27 21V9C27 5.68629 24.3137 3 21 3Z" fill="white"/>
<path d="M24.1368 21.4775H18.4092V20.6621L18.544 20.6602C19.2674 20.6479 19.6973 20.572 19.8399 20.5283C19.9794 20.4796 20.0566 20.4216 20.0958 20.3662C20.1181 20.3287 20.1454 20.2468 20.168 20.1016C20.1901 19.9598 20.2067 19.7729 20.2159 19.5391V19.5381C20.2219 19.4124 20.2335 18.5446 20.252 16.9277V12.6631C20.252 11.8293 20.2431 11.0137 20.2247 10.2168L20.2061 9.8291C20.1982 9.71564 20.1879 9.61779 20.1768 9.53516C20.1657 9.45243 20.1537 9.38724 20.1407 9.33887C20.1273 9.28925 20.116 9.26663 20.1114 9.25977L20.1055 9.25195C20.0596 9.1773 19.978 9.11361 19.8399 9.07129L19.8331 9.06934C19.7754 9.04881 19.6436 9.02676 19.42 9.00977C19.2016 8.99317 18.9099 8.98171 18.544 8.97559L18.4092 8.97363V8.11328H24.1368V8.97363L24.003 8.97559C23.6369 8.98171 23.3441 8.99317 23.1241 9.00977C22.8989 9.02676 22.7636 9.04916 22.7022 9.07031L22.6993 9.07129C22.5653 9.11394 22.4895 9.1683 22.4503 9.22363L22.4141 9.31543C22.4017 9.35896 22.3894 9.41615 22.378 9.48926C22.356 9.63098 22.3403 9.81795 22.3311 10.0518V10.0537C22.3251 10.1747 22.3125 11.0422 22.294 12.6641V16.9277C22.294 17.7617 22.3029 18.5744 22.3213 19.3652L22.3399 19.7539C22.3475 19.8679 22.3568 19.9671 22.3672 20.0508C22.3777 20.1344 22.3892 20.2007 22.4014 20.251C22.4132 20.2995 22.4246 20.3248 22.4307 20.3359C22.4846 20.4152 22.5697 20.4811 22.6993 20.5283C22.7632 20.5475 22.8997 20.5677 23.1231 20.583C23.3436 20.5981 23.6367 20.6091 24.003 20.6152L24.1368 20.6172V21.4775Z" fill="#1D1D1D" stroke="#1D1D1D" stroke-width="0.272725"/>
<path d="M12.4844 8.11328C12.7489 8.11328 12.9685 8.19507 13.1123 8.38086L13.1621 8.44727C13.2737 8.61171 13.3541 8.84382 13.4112 9.12988C13.4865 9.49188 13.7478 10.6774 14.1954 12.6875C14.6427 14.6905 15.0113 16.2015 15.3008 17.2207C15.5914 18.2437 15.8185 18.9337 15.9825 19.2988C16.1413 19.6526 16.3287 19.8533 16.4893 20.0244C16.5367 20.0749 16.6423 20.1557 16.7774 20.2451C16.9092 20.3323 17.0587 20.4207 17.1856 20.4863C17.2593 20.5245 17.4006 20.5735 17.5606 20.6123C17.7204 20.6511 17.8822 20.676 17.9961 20.6729L18.1368 20.6689V21.4775H18C17.6925 21.4775 17.358 21.4752 17.0567 21.4736C16.7553 21.4721 16.4876 21.4707 16.3125 21.4707H15.5098C15.214 21.4707 14.9528 21.3839 14.7334 21.207C14.5161 21.0317 14.3476 20.7749 14.2227 20.4482C13.98 19.8132 13.5565 18.1249 12.9532 15.3994L11.794 10.3691C11.6729 9.85275 11.5285 9.52544 11.3741 9.35938C11.2314 9.20602 10.9773 9.1123 10.5752 9.1123C10.5064 9.11231 10.4059 9.11402 10.2774 9.11523C10.1492 9.11645 9.99437 9.11719 9.81836 9.11719H9.68164V8.50391L9.78906 8.48047C11.0251 8.20623 12.1413 8.1133 12.4844 8.11328Z" fill="#1D1D1D" stroke="#1D1D1D" stroke-width="0.272725"/>
<path d="M11.1231 12.5596C10.4032 14.23 9.31718 16.6376 8.7334 17.9414C8.34161 18.8164 8.45025 18.563 8.24414 18.9814C8.17136 19.1292 7.98608 19.3883 7.79199 19.6377C7.59972 19.8847 7.41166 20.1068 7.34375 20.1777C7.30264 20.2207 7.20965 20.2908 7.08886 20.3691C6.97109 20.4455 6.83683 20.5226 6.72363 20.5801C6.66129 20.6117 6.53824 20.6507 6.39453 20.6807C6.25218 20.7103 6.10596 20.7284 6.00293 20.7256L5.86328 20.7217V21.4766H7.81933C8.34258 21.4765 8.95258 21.1786 9.19043 20.5684C9.40442 20.0193 10.8752 16.0785 11.584 13.8398L11.5938 13.8076L11.5889 13.7754L11.3828 12.5898L11.3047 12.1387L11.1231 12.5596Z" fill="#1D1D1D" stroke="#1D1D1D" stroke-width="0.272725"/>
</g>
<defs>
<filter id="filter0_dii_7646_73664" x="0" y="2.25" width="30" height="30" filterUnits="userSpaceOnUse" color-interpolation-filters="sRGB">
<feFlood flood-opacity="0" result="BackgroundImageFix"/>
<feColorMatrix in="SourceAlpha" type="matrix" values="0 0 0 0 0 0 0 0 0 0 0 0 0 0 0 0 0 0 127 0" result="hardAlpha"/>
<feOffset dy="2.25"/>
<feGaussianBlur stdDeviation="1.5"/>
<feComposite in2="hardAlpha" operator="out"/>
<feColorMatrix type="matrix" values="0 0 0 0 1 0 0 0 0 1 0 0 0 0 1 0 0 0 0.25 0"/>
<feBlend mode="normal" in2="BackgroundImageFix" result="effect1_dropShadow_7646_73664"/>
<feBlend mode="normal" in="SourceGraphic" in2="effect1_dropShadow_7646_73664" result="shape"/>
<feColorMatrix in="SourceAlpha" type="matrix" values="0 0 0 0 0 0 0 0 0 0 0 0 0 0 0 0 0 0 127 0" result="hardAlpha"/>
<feOffset/>
<feGaussianBlur stdDeviation="2"/>
<feComposite in2="hardAlpha" operator="arithmetic" k2="-1" k3="1"/>
<feColorMatrix type="matrix" values="0 0 0 0 0.308181 0 0 0 0 0.308181 0 0 0 0 0.308181 0 0 0 0.25 0"/>
<feBlend mode="normal" in2="shape" result="effect2_innerShadow_7646_73664"/>
<feColorMatrix in="SourceAlpha" type="matrix" values="0 0 0 0 0 0 0 0 0 0 0 0 0 0 0 0 0 0 127 0" result="hardAlpha"/>
<feOffset dy="0.75"/>
<feGaussianBlur stdDeviation="1.5"/>
<feComposite in2="hardAlpha" operator="arithmetic" k2="-1" k3="1"/>
<feColorMatrix type="matrix" values="0 0 0 0 0.113725 0 0 0 0 0.113725 0 0 0 0 0.113725 0 0 0 0.33 0"/>
<feBlend mode="normal" in2="effect2_innerShadow_7646_73664" result="effect3_innerShadow_7646_73664"/>
</filter>
</defs>
</svg>
